<svg aria-hidden="true" style="position: absolute; width: 0; height: 0; overflow: hidden;" version="1.1" xmlns="http://www.w3.org/2000/svg" xmlns:xlink="http://www.w3.org/1999/xlink">
<defs>
<symbol id="icon-email" viewBox="0 0 32 32">
<path d="M29.183 7.957c-0.138-0.184-0.356-0.302-0.601-0.302-0.169 0-0.325 0.056-0.451 0.15l0.002-0.001-12.098 9.030c-0.041 0.031-0.093 0.050-0.15 0.050s-0.109-0.019-0.151-0.050l0.001 0-11.86-9.070c-0.125-0.096-0.283-0.154-0.455-0.154-0.414 0-0.75 0.336-0.75 0.75 0 0.242 0.115 0.458 0.293 0.595l0.002 0.001 9.325 7.133-9.223 6.95c-0.185 0.139-0.304 0.358-0.304 0.605 0 0.417 0.338 0.755 0.755 0.755 0.17 0 0.327-0.056 0.453-0.151l-0.002 0.001 9.557-7.215 1.295 1c0.291 0.225 0.662 0.36 1.064 0.36 0.393 0 0.756-0.13 1.048-0.349l-0.005 0.003 1.36-1.015 9.67 7.215c0.124 0.093 0.28 0.149 0.449 0.149 0.414 0 0.75-0.336 0.75-0.75 0-0.245-0.118-0.463-0.3-0.6l-0.002-0.001-9.315-6.96 9.488-7.088c0.182-0.138 0.298-0.355 0.298-0.599 0-0.167-0.055-0.321-0.147-0.446l0.001 0.002z"></path>
<path d="M28.25 4.75h-24.5c-2.071 0-3.75 1.679-3.75 3.75v0 15c0 2.071 1.679 3.75 3.75 3.75v0h24.5c2.071 0 3.75-1.679 3.75-3.75v0-15c0-2.071-1.679-3.75-3.75-3.75v0zM30.5 23.5c0 1.243-1.007 2.25-2.25 2.25v0h-24.5c-1.243 0-2.25-1.007-2.25-2.25v0-15c0-1.243 1.007-2.25 2.25-2.25v0h24.5c1.243 0 2.25 1.007 2.25 2.25v0z"></path>
</symbol>
<symbol id="icon-linkedin" viewBox="0 0 32 32">
<path d="M0 16c0-8.837 7.163-16 16-16s16 7.163 16 16-7.163 16-16 16-16-7.163-16-16zM11.307 13.252h-3.625v10.895h3.625v-10.895zM11.546 9.882c-0.023-1.069-0.787-1.882-2.028-1.882s-2.051 0.813-2.051 1.882c0 1.046 0.787 1.883 2.004 1.883h0.023c1.265 0 2.052-0.837 2.052-1.883zM24.383 17.9c0-3.347-1.789-4.904-4.175-4.904-1.925 0-2.787 1.057-3.268 1.799v-1.543h-3.627c0.048 1.023 0 10.895 0 10.895h3.627v-6.085c0-0.325 0.023-0.65 0.119-0.883 0.262-0.651 0.859-1.324 1.86-1.324 1.313 0 1.838 0.999 1.838 2.463v5.829h3.625v-6.247z"></path>
</symbol>
<symbol id="icon-phone" viewBox="0 0 32 32">
<path d="M16-0c-8.836 0-16 7.164-16 16s7.164 16 16 16 16-7.164 16-16c0-8.836-7.164-16-16-16zM24.45 23.346l-1.281 1.281c-0.229 0.228-0.898 0.371-0.92 0.371-4.053 0.035-7.955-1.557-10.822-4.424-2.875-2.877-4.469-6.793-4.426-10.859 0-0.002 0.147-0.652 0.375-0.879l1.281-1.281c0.469-0.471 1.369-0.684 2-0.473l0.269 0.090c0.629 0.211 1.289 0.906 1.463 1.547l0.644 2.365c0.174 0.643-0.061 1.557-0.529 2.026l-0.855 0.856c0.84 3.109 3.279 5.549 6.389 6.391l0.855-0.856c0.471-0.471 1.385-0.705 2.026-0.532l2.365 0.647c0.641 0.176 1.336 0.832 1.547 1.461l0.090 0.273c0.209 0.629-0.002 1.529-0.471 1.996z"></path>
</symbol>
<symbol id="icon-github" viewBox="0 0 32 32">
<path d="M29.854 8.36c-1.431-2.451-3.372-4.392-5.823-5.823s-5.128-2.146-8.031-2.146c-2.903 0-5.58 0.715-8.031 2.146s-4.392 3.371-5.823 5.823c-1.431 2.451-2.146 5.128-2.146 8.031 0 3.486 1.017 6.622 3.052 9.406s4.663 4.712 7.885 5.781c0.375 0.070 0.653 0.021 0.833-0.146s0.271-0.375 0.271-0.625c0-0.042-0.004-0.416-0.011-1.125-0.006-0.544-0.010-1.195-0.011-1.847v-0.007l-0.479 0.083c-0.306 0.056-0.691 0.080-1.156 0.073s-0.948-0.055-1.448-0.146c-0.5-0.090-0.965-0.298-1.396-0.625s-0.736-0.754-0.916-1.281l-0.208-0.479c-0.139-0.319-0.357-0.674-0.656-1.062s-0.601-0.653-0.906-0.792l-0.146-0.104c-0.097-0.069-0.187-0.153-0.271-0.25s-0.146-0.194-0.187-0.292c-0.042-0.097-0.007-0.177 0.104-0.24s0.312-0.093 0.604-0.093l0.417 0.062c0.278 0.056 0.621 0.222 1.031 0.5s0.746 0.639 1.010 1.083c0.32 0.57 0.705 1.004 1.156 1.302s0.906 0.448 1.364 0.448 0.854-0.035 1.188-0.104c0.333-0.069 0.646-0.174 0.937-0.313 0.125-0.931 0.465-1.646 1.021-2.146-0.792-0.083-1.503-0.208-2.135-0.375s-1.285-0.438-1.958-0.813c-0.674-0.375-1.233-0.84-1.677-1.396s-0.809-1.285-1.094-2.188c-0.285-0.903-0.427-1.944-0.427-3.125 0-1.681 0.549-3.111 1.646-4.292-0.514-1.264-0.465-2.68 0.146-4.25 0.403-0.125 1-0.031 1.792 0.281s1.371 0.58 1.74 0.802c0.368 0.222 0.663 0.41 0.885 0.562 1.292-0.361 2.625-0.541 4-0.541s2.708 0.181 4 0.541l0.792-0.5c0.541-0.333 1.181-0.639 1.916-0.917s1.299-0.354 1.688-0.229c0.625 1.569 0.68 2.986 0.166 4.25 1.097 1.181 1.646 2.611 1.646 4.292 0 1.18-0.143 2.225-0.427 3.135s-0.652 1.639-1.104 2.188c-0.452 0.549-1.014 1.011-1.688 1.385s-1.327 0.646-1.958 0.813c-0.632 0.167-1.344 0.292-2.135 0.375 0.722 0.625 1.083 1.611 1.083 2.958v4.395c0 0.25 0.087 0.458 0.261 0.625s0.448 0.215 0.823 0.146c3.223-1.069 5.851-2.996 7.886-5.781s3.052-5.92 3.052-9.406c-0.001-2.902-0.716-5.579-2.146-8.030z"></path>
</symbol>
<symbol id="icon-telegram" viewBox="0 0 32 32">
<path d="M16 0.5c-8.563 0-15.5 6.938-15.5 15.5s6.938 15.5 15.5 15.5c8.563 0 15.5-6.938 15.5-15.5s-6.938-15.5-15.5-15.5zM23.613 11.119l-2.544 11.988c-0.188 0.85-0.694 1.056-1.4 0.656l-3.875-2.856-1.869 1.8c-0.206 0.206-0.381 0.381-0.781 0.381l0.275-3.944 7.181-6.488c0.313-0.275-0.069-0.431-0.482-0.156l-8.875 5.587-3.825-1.194c-0.831-0.262-0.85-0.831 0.175-1.231l14.944-5.763c0.694-0.25 1.3 0.169 1.075 1.219z"></path>
</symbol>
<symbol id="icon-location" viewBox="0 0 1024 1024">
<path d="M512 905.114c-12.595 0-24.371-5.018-33.178-14.03-6.758-6.86-68.096-70.348-127.692-159.334-35.124-52.428-63.181-103.833-83.252-152.883-25.292-61.747-38.092-120.115-38.092-173.363 0-158.003 126.566-286.618 282.214-286.618s282.214 128.615 282.214 286.618c0 53.248-12.8 111.616-38.092 173.363-20.07 49.05-48.128 100.455-83.252 152.883-59.596 88.884-120.832 152.27-127.692 159.335-8.807 9.011-20.583 14.029-33.178 14.029zm0-745.268c-133.018 0-241.254 110.183-241.254 245.658 0 211.866 227.635 446.976 237.363 456.909 1.331 1.331 2.867 1.638 3.891 1.638s2.56-.307 3.891-1.638c9.728-9.933 237.363-245.043 237.363-456.909 0-135.373-108.236-245.658-241.254-245.658z"/>
<path d="M511.693 493.056c-62.567 0-113.46-50.893-113.46-113.46S449.23 266.24 511.694 266.24s113.459 50.893 113.459 113.46-50.893 113.356-113.46 113.356zm0-185.856c-39.936 0-72.5 32.46-72.5 72.5s32.461 72.498 72.5 72.498 72.499-32.46 72.499-72.499-32.46-72.499-72.5-72.499z"/>
</symbol>
</defs>
</svg>
